<svg width="48" height="46" viewBox="0 0 48 46" fill="none" xmlns="http://www.w3.org/2000/svg">
<path fill-rule="evenodd" clip-rule="evenodd" d="M16.9125 23.9584H14.938V25.8751H16.9125V23.9584ZM14.938 22.0417C13.8474 22.0417 12.9634 22.8998 12.9634 23.9584V25.8751C12.9634 26.9337 13.8474 27.7917 14.938 27.7917H16.9125C18.0031 27.7917 18.8871 26.9337 18.8871 25.8751V23.9584C18.8871 22.8998 18.0031 22.0417 16.9125 22.0417H14.938Z" fill="#001111"/>
<path fill-rule="evenodd" clip-rule="evenodd" d="M24.8105 23.9584H22.8359V25.8751H24.8105V23.9584ZM22.8359 22.0417C21.7453 22.0417 20.8613 22.8998 20.8613 23.9584V25.8751C20.8613 26.9337 21.7453 27.7917 22.8359 27.7917H24.8105C25.901 27.7917 26.785 26.9337 26.785 25.8751V23.9584C26.785 22.8998 25.901 22.0417 24.8105 22.0417H22.8359Z" fill="#001111"/>
<path fill-rule="evenodd" clip-rule="evenodd" d="M32.7089 23.9584H30.7343V25.8751H32.7089V23.9584ZM30.7343 22.0417C29.6438 22.0417 28.7598 22.8998 28.7598 23.9584V25.8751C28.7598 26.9337 29.6438 27.7917 30.7343 27.7917H32.7089C33.7995 27.7917 34.6835 26.9337 34.6835 25.8751V23.9584C34.6835 22.8998 33.7995 22.0417 32.7089 22.0417H30.7343Z" fill="#001111"/>
<path fill-rule="evenodd" clip-rule="evenodd" d="M16.9125 31.6249H14.938V33.5416H16.9125V31.6249ZM14.938 29.7083C13.8474 29.7083 12.9634 30.5663 12.9634 31.6249V33.5416C12.9634 34.6002 13.8474 35.4583 14.938 35.4583H16.9125C18.0031 35.4583 18.8871 34.6002 18.8871 33.5416V31.6249C18.8871 30.5663 18.0031 29.7083 16.9125 29.7083H14.938Z" fill="#001111"/>
<path fill-rule="evenodd" clip-rule="evenodd" d="M24.8105 31.6249H22.8359V33.5416H24.8105V31.6249ZM22.8359 29.7083C21.7453 29.7083 20.8613 30.5663 20.8613 31.6249V33.5416C20.8613 34.6002 21.7453 35.4583 22.8359 35.4583H24.8105C25.901 35.4583 26.785 34.6002 26.785 33.5416V31.6249C26.785 30.5663 25.901 29.7083 24.8105 29.7083H22.8359Z" fill="#001111"/>
<path fill-rule="evenodd" clip-rule="evenodd" d="M32.7089 31.6249H30.7343V33.5416H32.7089V31.6249ZM30.7343 29.7083C29.6438 29.7083 28.7598 30.5663 28.7598 31.6249V33.5416C28.7598 34.6002 29.6438 35.4583 30.7343 35.4583H32.7089C33.7995 35.4583 34.6835 34.6002 34.6835 33.5416V31.6249C34.6835 30.5663 33.7995 29.7083 32.7089 29.7083H30.7343Z" fill="#001111"/>
<path fill-rule="evenodd" clip-rule="evenodd" d="M10.0014 10.5417C9.45615 10.5417 9.01412 10.9707 9.01412 11.5V37.375C9.01412 37.9043 9.45615 38.3333 10.0014 38.3333H37.6454C38.1893 38.3333 38.6327 37.9035 38.6327 37.3729V11.5021C38.6327 10.9715 38.1893 10.5417 37.6454 10.5417H34.6836V8.625H37.6454C39.2826 8.625 40.6073 9.91559 40.6073 11.5021V37.3729C40.6073 38.9594 39.2826 40.25 37.6454 40.25H10.0014C8.36562 40.25 7.03955 38.9629 7.03955 37.375V11.5C7.03955 9.91214 8.36562 8.625 10.0014 8.625H14.9378V10.5417H10.0014ZM30.7344 10.5417H18.887V8.625H30.7344V10.5417Z" fill="#001111"/>
<path fill-rule="evenodd" clip-rule="evenodd" d="M38.6327 19.1667H9.01416V17.25H38.6327V19.1667Z" fill="#001111"/>
<path d="M14.9375 6.70833C14.9375 6.17906 15.3795 5.75 15.9248 5.75C16.4701 5.75 16.9121 6.17906 16.9121 6.70833V13.4167C16.9121 13.946 16.4701 14.375 15.9248 14.375C15.3795 14.375 14.9375 13.946 14.9375 13.4167V6.70833Z" fill="#001111"/>
<path d="M30.7344 6.70833C30.7344 6.17906 31.1764 5.75 31.7217 5.75C32.2669 5.75 32.7089 6.17906 32.7089 6.70833V13.4167C32.7089 13.946 32.2669 14.375 31.7217 14.375C31.1764 14.375 30.7344 13.946 30.7344 13.4167V6.70833Z" fill="#001111"/>
</svg>
