<svg width="34" height="32" viewBox="0 0 34 32" fill="none" xmlns="http://www.w3.org/2000/svg">
<path d="M31.5844 15C31.3697 14.9987 31.1607 14.9322 30.9868 14.81L17.1614 5.23002L3.33596 14.81C3.11416 14.9375 2.85116 14.9797 2.5989 14.9282C2.34664 14.8767 2.12344 14.7352 1.97336 14.5318C1.82328 14.3283 1.75723 14.0777 1.78825 13.8293C1.81927 13.5809 1.94511 13.3528 2.14091 13.19L16.5639 3.19002C16.7384 3.06944 16.9472 3.00464 17.1614 3.00464C17.3756 3.00464 17.5844 3.06944 17.7589 3.19002L32.1819 13.19C32.3578 13.3136 32.4889 13.488 32.5566 13.6883C32.6243 13.8886 32.6251 14.1045 32.5588 14.3052C32.4926 14.5059 32.3627 14.6812 32.1877 14.806C32.0126 14.9308 31.8015 14.9987 31.5844 15Z" fill="#001111"/>
<path d="M5.82904 9C5.55581 9 5.29377 8.89464 5.10057 8.70711C4.90737 8.51957 4.79883 8.26522 4.79883 8V4C4.79883 3.73478 4.90737 3.48043 5.10057 3.29289C5.29377 3.10536 5.55581 3 5.82904 3H9.94989C10.2231 3 10.4852 3.10536 10.6784 3.29289C10.8716 3.48043 10.9801 3.73478 10.9801 4C10.9801 4.26522 10.8716 4.51957 10.6784 4.70711C10.4852 4.89464 10.2231 5 9.94989 5H6.85925V8C6.85925 8.26522 6.75071 8.51957 6.55751 8.70711C6.36431 8.89464 6.10227 9 5.82904 9Z" fill="#001111"/>
<path d="M26.4333 29H21.2822C21.009 29 20.7469 28.8946 20.5537 28.7071C20.3605 28.5196 20.252 28.2652 20.252 28V21H14.0707V28C14.0707 28.2652 13.9622 28.5196 13.769 28.7071C13.5758 28.8946 13.3137 29 13.0405 29H7.88946C7.06978 29 6.28366 28.6839 5.70405 28.1213C5.12445 27.5587 4.79883 26.7956 4.79883 26V16C4.79883 15.7348 4.90737 15.4804 5.10057 15.2929C5.29377 15.1054 5.55581 15 5.82904 15C6.10227 15 6.36431 15.1054 6.55751 15.2929C6.75071 15.4804 6.85925 15.7348 6.85925 16V26C6.85925 26.2652 6.96779 26.5196 7.16099 26.7071C7.3542 26.8946 7.61623 27 7.88946 27H12.0103V20C12.0103 19.7348 12.1188 19.4804 12.3121 19.2929C12.5053 19.1054 12.7673 19 13.0405 19H21.2822C21.5554 19 21.8175 19.1054 22.0107 19.2929C22.2039 19.4804 22.3124 19.7348 22.3124 20V27H26.4333C26.7065 27 26.9685 26.8946 27.1617 26.7071C27.3549 26.5196 27.4635 26.2652 27.4635 26V16C27.4635 15.7348 27.572 15.4804 27.7652 15.2929C27.9584 15.1054 28.2205 15 28.4937 15C28.7669 15 29.029 15.1054 29.2222 15.2929C29.4154 15.4804 29.5239 15.7348 29.5239 16V26C29.5239 26.7956 29.1983 27.5587 28.6187 28.1213C28.0391 28.6839 27.253 29 26.4333 29Z" fill="#001111"/>
</svg>
