<svg width="52" height="50" viewBox="0 0 52 50" fill="none" xmlns="http://www.w3.org/2000/svg">
<path d="M13.2684 23.4375C14.1537 23.4375 14.8781 24.1406 14.8781 25V27.3438H17.2927C18.178 27.3438 18.9024 28.0469 18.9024 28.9062C18.9024 29.7656 18.178 30.4688 17.2927 30.4688H14.8781V32.8125C14.8781 33.6719 14.1537 34.375 13.2684 34.375C12.3831 34.375 11.6587 33.6719 11.6587 32.8125V30.4688H9.24415C8.35881 30.4688 7.63444 29.7656 7.63444 28.9062C7.63444 28.0469 8.35881 27.3438 9.24415 27.3438H11.6587V25C11.6587 24.1406 12.3831 23.4375 13.2684 23.4375ZM13.2684 22.6562C11.9372 22.6562 10.8539 23.7078 10.8539 25V26.5625H9.24415C7.91292 26.5625 6.82959 27.6141 6.82959 28.9062C6.82959 30.1984 7.91292 31.25 9.24415 31.25H10.8539V32.8125C10.8539 34.1047 11.9372 35.1562 13.2684 35.1562C14.5996 35.1562 15.683 34.1047 15.683 32.8125V31.25H17.2927C18.6239 31.25 19.7072 30.1984 19.7072 28.9062C19.7072 27.6141 18.6239 26.5625 17.2927 26.5625H15.683V25C15.683 23.7078 14.5996 22.6562 13.2684 22.6562Z" fill="#001111"/>
<path d="M39.0239 30.4688C37.6903 30.4688 36.6094 31.5172 36.6094 32.8125C36.6094 34.1078 37.6903 35.1562 39.0239 35.1562C40.3576 35.1562 41.4385 34.1078 41.4385 32.8125C41.4385 31.5172 40.3576 30.4688 39.0239 30.4688ZM39.0239 34.375C38.1354 34.375 37.4142 33.675 37.4142 32.8125C37.4142 31.95 38.1354 31.25 39.0239 31.25C39.9125 31.25 40.6336 31.95 40.6336 32.8125C40.6336 33.675 39.9125 34.375 39.0239 34.375Z" fill="#001111"/>
<path d="M39.0239 22.6562C37.6903 22.6562 36.6094 23.7047 36.6094 25C36.6094 26.2953 37.6903 27.3438 39.0239 27.3438C40.3576 27.3438 41.4385 26.2953 41.4385 25C41.4385 23.7047 40.3576 22.6562 39.0239 22.6562ZM39.0239 26.5625C38.1354 26.5625 37.4142 25.8625 37.4142 25C37.4142 24.1375 38.1354 23.4375 39.0239 23.4375C39.9125 23.4375 40.6336 24.1375 40.6336 25C40.6336 25.8625 39.9125 26.5625 39.0239 26.5625Z" fill="#001111"/>
<path d="M34.9995 26.5625C33.6659 26.5625 32.585 27.6109 32.585 28.9062C32.585 30.2016 33.6659 31.25 34.9995 31.25C36.3332 31.25 37.4141 30.2016 37.4141 28.9062C37.4141 27.6109 36.3332 26.5625 34.9995 26.5625ZM34.9995 30.4688C34.111 30.4688 33.3898 29.7687 33.3898 28.9062C33.3898 28.0438 34.111 27.3438 34.9995 27.3438C35.8881 27.3438 36.6092 28.0438 36.6092 28.9062C36.6092 29.7687 35.8881 30.4688 34.9995 30.4688Z" fill="#001111"/>
<path d="M43.0479 26.5625C41.7142 26.5625 40.6333 27.6109 40.6333 28.9062C40.6333 30.2016 41.7142 31.25 43.0479 31.25C44.3815 31.25 45.4624 30.2016 45.4624 28.9062C45.4624 27.6109 44.3815 26.5625 43.0479 26.5625ZM43.0479 30.4688C42.1593 30.4688 41.4382 29.7687 41.4382 28.9062C41.4382 28.0438 42.1593 27.3438 43.0479 27.3438C43.9364 27.3438 44.6576 28.0438 44.6576 28.9062C44.6576 29.7687 43.9364 30.4688 43.0479 30.4688Z" fill="#001111"/>
<path d="M39.0237 39.8438C35.6755 39.8438 32.5567 38.425 30.4045 35.9375H21.8876C19.7354 38.425 16.6166 39.8438 13.2684 39.8438C7.05496 39.8438 2.00049 34.9375 2.00049 28.9062C2.00049 22.875 7.05496 17.9688 13.2684 17.9688H39.0237C45.2372 17.9688 50.2917 22.875 50.2917 28.9062C50.2917 34.9375 45.2372 39.8438 39.0237 39.8438ZM21.1117 34.375H31.1804L31.4219 34.6742C33.2714 36.9664 36.0417 38.2812 39.0237 38.2812C44.3494 38.2812 48.6819 34.0758 48.6819 28.9062C48.6819 23.7367 44.3494 19.5312 39.0237 19.5312H13.2684C7.94272 19.5312 3.61019 23.7367 3.61019 28.9062C3.61019 34.0758 7.94272 38.2812 13.2684 38.2812C16.2504 38.2812 19.0207 36.9664 20.8703 34.6742L21.1117 34.375Z" fill="#001111"/>
<path d="M21.3169 25.7812V28.125H25.3412V25.7812H21.3169ZM24.5363 27.3438H22.1217V26.5625H24.5363V27.3438Z" fill="#001111"/>
<path d="M26.9507 25.7812V28.125H30.9749V25.7812H26.9507ZM30.1701 27.3438H27.7555V26.5625H30.1701V27.3438Z" fill="#001111"/>
</svg>
