<svg width="34" height="32" viewBox="0 0 34 32" fill="none" xmlns="http://www.w3.org/2000/svg">
<path d="M28.7128 28.019C28.1499 28.5654 27.2545 28.5654 26.6915 28.019L18.3273 19.9C17.5832 20.4778 16.7276 20.9352 15.7603 21.2722C14.7931 21.6093 13.7638 21.7778 12.6725 21.7778C9.96919 21.7778 7.68126 20.869 5.80876 19.0514C3.93625 17.2338 3 15.013 3 12.3889C3 9.76481 3.93625 7.54398 5.80876 5.72639C7.68126 3.9088 9.96919 3 12.6725 3C15.3759 3 17.6638 3.9088 19.5363 5.72639C21.4088 7.54398 22.3451 9.76481 22.3451 12.3889C22.3451 13.4481 22.1715 14.4472 21.8243 15.3861C21.477 16.325 21.0058 17.1556 20.4106 17.8778L28.7128 25.9366C29.3 26.5065 29.3 27.449 28.7128 28.019ZM12.6725 18.8889C14.5326 18.8889 16.1137 18.2569 17.4158 16.9931C18.7179 15.7292 19.3689 14.1944 19.3689 12.3889C19.3689 10.5833 18.7179 9.04861 17.4158 7.78472C16.1137 6.52083 14.5326 5.88889 12.6725 5.88889C10.8124 5.88889 9.23135 6.52083 7.92928 7.78472C6.6272 9.04861 5.97617 10.5833 5.97617 12.3889C5.97617 14.1944 6.6272 15.7292 7.92928 16.9931C9.23135 18.2569 10.8124 18.8889 12.6725 18.8889Z" fill="#001111"/>
</svg>
