<svg width="17.875000" height="17.875000" viewBox="0 0 17.875 17.875" fill="none" xmlns="http://www.w3.org/2000/svg" xmlns:xlink="http://www.w3.org/1999/xlink">
	<desc>
			Created with Pixso.
	</desc>
	<defs/>
	<path id="Vector" d="M7.5625 9.625C6.28613 9.625 5.06201 9.11792 4.15967 8.21558C3.25684 7.31299 2.75 6.08887 2.75 4.8125C2.75 3.53613 3.25684 2.31201 4.15967 1.40967C5.06201 0.50708 6.28613 0 7.5625 0C8.25879 -0.00317383 8.94727 0.149658 9.57666 0.447021C10.4111 0.832275 11.1177 1.44849 11.6133 2.22266C12.1084 2.99707 12.3716 3.89697 12.3716 4.81592C12.3716 5.73511 12.1084 6.63501 11.6133 7.40918C11.1177 8.18335 10.4111 8.7998 9.57666 9.18506C8.94629 9.47876 8.2583 9.62891 7.5625 9.625ZM7.5625 1.375C6.65088 1.375 5.77637 1.7373 5.13184 2.38184C4.4873 3.02661 4.125 3.90088 4.125 4.8125C4.125 5.72412 4.4873 6.59863 5.13184 7.24316C5.77637 7.88794 6.65088 8.25 7.5625 8.25C8.0542 8.25464 8.54053 8.14893 8.98584 7.94067C9.58398 7.66626 10.0908 7.22607 10.4463 6.67236C10.8013 6.11841 10.9902 5.47412 10.9902 4.81592C10.9902 4.15796 10.8013 3.51367 10.4463 2.95972C10.0908 2.40576 9.58398 1.96558 8.98584 1.69141C8.5415 1.47925 8.05469 1.37109 7.5625 1.375Z" fill="#FFFFFF" fill-opacity="1.000000" fill-rule="nonzero"/>
	<path id="Vector" d="M15.125 17.875L0 17.875L0 17.1875C0 15.5464 0.651855 13.9727 1.8125 12.8123C2.97266 11.6519 4.54639 11 6.1875 11L8.9375 11L9.32227 11C10.896 11.0981 12.3726 11.793 13.4507 12.9429C14.5293 14.0928 15.1279 15.6111 15.125 17.1875L15.125 17.875ZM1.42334 16.5L13.7017 16.5C13.5459 15.4043 13.0171 14.3955 12.2041 13.6443C11.3916 12.8928 10.3447 12.4446 9.24023 12.375L8.9375 12.375L6.1875 12.375C5.03027 12.3748 3.91113 12.7915 3.03613 13.5491C2.16113 14.3069 1.58838 15.3545 1.42334 16.5Z" fill="#FFFFFF" fill-opacity="1.000000" fill-rule="nonzero"/>
	<path id="Vector" d="M12.5127 0.240723C11.353 -0.140137 10.0928 -0.0664062 8.98584 0.447021L7.65186 1.07935L8.99268 1.69141C9.58887 1.96655 10.0938 2.40649 10.4478 2.95972C10.8018 3.51294 10.9897 4.15576 10.9897 4.8125C10.9897 5.46924 10.8018 6.1123 10.4478 6.66528C10.0938 7.21851 9.58887 7.65869 8.99268 7.93384L7.65186 8.54565L8.98584 9.17822C9.61523 9.47559 10.3037 9.62817 11 9.625C12.1455 9.62744 13.2539 9.22119 14.1265 8.47949C14.999 7.73779 15.5786 6.70898 15.7612 5.57837C15.9434 4.44751 15.7163 3.28906 15.1206 2.31055C14.5254 1.33228 13.6006 0.598389 12.5127 0.240723ZM12.0933 8.07129C11.7188 8.19629 11.3257 8.25684 10.9312 8.25C11.3887 7.802 11.752 7.26709 12 6.67676C12.248 6.08667 12.3755 5.45288 12.3755 4.8125C12.3755 4.17236 12.248 3.53857 12 2.94824C11.752 2.35791 11.3887 1.82324 10.9312 1.375C11.7529 1.3584 12.5532 1.63647 13.1875 2.15918C13.8218 2.68188 14.2476 3.41455 14.3882 4.22412C14.5283 5.03394 14.3745 5.86719 13.9531 6.573C13.5322 7.27856 12.8726 7.8103 12.0933 8.07129Z" fill="#FFFFFF" fill-opacity="1.000000" fill-rule="nonzero"/>
	<path id="Vector" d="M17.1875 16.5C17.0049 16.5 16.8301 16.4277 16.7012 16.2986C16.5723 16.1697 16.5 15.9949 16.5 15.8125L16.5 15.125C16.4502 14.5439 16.2656 13.9824 15.9614 13.4849C15.6572 12.9873 15.2412 12.5674 14.7466 12.2583C14.6626 12.2129 14.5884 12.1506 14.5298 12.0752C14.4707 11.9998 14.4282 11.9128 14.4053 11.8201C14.3818 11.7273 14.3779 11.6309 14.394 11.5366C14.4102 11.4421 14.4458 11.3523 14.4985 11.2727C14.5518 11.1929 14.6206 11.125 14.7012 11.0735C14.7817 11.0217 14.8721 10.9875 14.9663 10.9729C15.061 10.9583 15.1577 10.9636 15.25 10.9883C15.3423 11.0132 15.4287 11.0569 15.5029 11.1169C16.187 11.55 16.7588 12.1392 17.1709 12.8357C17.583 13.5325 17.8247 14.3171 17.875 15.125L17.875 15.8125C17.875 15.9949 17.8027 16.1697 17.6733 16.2986C17.5444 16.4277 17.3696 16.5 17.1875 16.5Z" fill="#FFFFFF" fill-opacity="1.000000" fill-rule="nonzero"/>
</svg>
