<svg id='caledar' width="inherit" height="inherit" viewBox="0 0 30 30" fill="none" xmlns="http://www.w3.org/2000/svg" xmlns:xlink="http://www.w3.org/1999/xlink">
	<desc>
			Created with Pixso.
	</desc>
	<defs>
		<clipPath id="clip108_20">
			<rect id="Календарь2 2" width="30.000000" height="30.000000" fill="white" fill-opacity="0"/>
		</clipPath>
	</defs>
	<rect id="Календарь2 2" width="30.000000" height="30.000000" fill="#FFFFFF" fill-opacity="0"/>
	<g clip-path="url(#clip108_20)">
		<path id="Vector" d="M10.625 15.625L9.375 15.625L9.375 16.875L10.625 16.875L10.625 15.625ZM9.375 14.375C8.68457 14.375 8.125 14.9346 8.125 15.625L8.125 16.875C8.125 17.5654 8.68457 18.125 9.375 18.125L10.625 18.125C11.3154 18.125 11.875 17.5654 11.875 16.875L11.875 15.625C11.875 14.9346 11.3154 14.375 10.625 14.375L9.375 14.375Z" fill="#FFFFFF" fill-opacity="1.000000" fill-rule="evenodd"/>
		<path id="Vector" d="M15.625 15.625L14.375 15.625L14.375 16.875L15.625 16.875L15.625 15.625ZM14.375 14.375C13.6846 14.375 13.125 14.9346 13.125 15.625L13.125 16.875C13.125 17.5654 13.6846 18.125 14.375 18.125L15.625 18.125C16.3154 18.125 16.875 17.5654 16.875 16.875L16.875 15.625C16.875 14.9346 16.3154 14.375 15.625 14.375L14.375 14.375Z" fill="#FFFFFF" fill-opacity="1.000000" fill-rule="evenodd"/>
		<path id="Vector" d="M20.625 15.625L19.375 15.625L19.375 16.875L20.625 16.875L20.625 15.625ZM19.375 14.375C18.6846 14.375 18.125 14.9346 18.125 15.625L18.125 16.875C18.125 17.5654 18.6846 18.125 19.375 18.125L20.625 18.125C21.3154 18.125 21.875 17.5654 21.875 16.875L21.875 15.625C21.875 14.9346 21.3154 14.375 20.625 14.375L19.375 14.375Z" fill="#FFFFFF" fill-opacity="1.000000" fill-rule="evenodd"/>
		<path id="Vector" d="M10.625 20.625L9.375 20.625L9.375 21.875L10.625 21.875L10.625 20.625ZM9.375 19.375C8.68457 19.375 8.125 19.9346 8.125 20.625L8.125 21.875C8.125 22.5654 8.68457 23.125 9.375 23.125L10.625 23.125C11.3154 23.125 11.875 22.5654 11.875 21.875L11.875 20.625C11.875 19.9346 11.3154 19.375 10.625 19.375L9.375 19.375Z" fill="#FFFFFF" fill-opacity="1.000000" fill-rule="evenodd"/>
		<path id="Vector" d="M15.625 20.625L14.375 20.625L14.375 21.875L15.625 21.875L15.625 20.625ZM14.375 19.375C13.6846 19.375 13.125 19.9346 13.125 20.625L13.125 21.875C13.125 22.5654 13.6846 23.125 14.375 23.125L15.625 23.125C16.3154 23.125 16.875 22.5654 16.875 21.875L16.875 20.625C16.875 19.9346 16.3154 19.375 15.625 19.375L14.375 19.375Z" fill="#FFFFFF" fill-opacity="1.000000" fill-rule="evenodd"/>
		<path id="Vector" d="M20.625 20.625L19.375 20.625L19.375 21.875L20.625 21.875L20.625 20.625ZM19.375 19.375C18.6846 19.375 18.125 19.9346 18.125 20.625L18.125 21.875C18.125 22.5654 18.6846 23.125 19.375 23.125L20.625 23.125C21.3154 23.125 21.875 22.5654 21.875 21.875L21.875 20.625C21.875 19.9346 21.3154 19.375 20.625 19.375L19.375 19.375Z" fill="#FFFFFF" fill-opacity="1.000000" fill-rule="evenodd"/>
		<path id="Vector" d="M6.25 6.875C5.90479 6.875 5.625 7.15479 5.625 7.5L5.625 24.375C5.625 24.7202 5.90479 25 6.25 25L23.75 25C24.0942 25 24.375 24.7197 24.375 24.3735L24.375 7.50146C24.375 7.15527 24.0942 6.875 23.75 6.875L21.875 6.875L21.875 5.625L23.75 5.625C24.7866 5.625 25.625 6.4668 25.625 7.50146L25.625 24.3735C25.625 25.4082 24.7866 26.25 23.75 26.25L6.25 26.25C5.21436 26.25 4.375 25.4106 4.375 24.375L4.375 7.5C4.375 6.46436 5.21436 5.625 6.25 5.625L9.375 5.625L9.375 6.875L6.25 6.875ZM19.375 6.875L11.875 6.875L11.875 5.625L19.375 5.625L19.375 6.875Z" fill="#FFFFFF" fill-opacity="1.000000" fill-rule="evenodd"/>
		<path id="Vector" d="M24.375 12.5L5.625 12.5L5.625 11.25L24.375 11.25L24.375 12.5Z" fill="#FFFFFF" fill-opacity="1.000000" fill-rule="evenodd"/>
		<path id="Vector" d="M9.375 4.375C9.375 4.02979 9.65479 3.75 10 3.75C10.3452 3.75 10.625 4.02979 10.625 4.375L10.625 8.75C10.625 9.09521 10.3452 9.375 10 9.375C9.65479 9.375 9.375 9.09521 9.375 8.75L9.375 4.375Z" fill="#FFFFFF" fill-opacity="1.000000" fill-rule="nonzero"/>
		<path id="Vector" d="M19.375 4.375C19.375 4.02979 19.6548 3.75 20 3.75C20.3452 3.75 20.625 4.02979 20.625 4.375L20.625 8.75C20.625 9.09521 20.3452 9.375 20 9.375C19.6548 9.375 19.375 9.09521 19.375 8.75L19.375 4.375Z" fill="#FFFFFF" fill-opacity="1.000000" fill-rule="nonzero"/>
	</g>
</svg>
