<svg width="23.999512" height="18.750000" viewBox="0 0 23.9995 18.75" fill="none" xmlns="http://www.w3.org/2000/svg" xmlns:xlink="http://www.w3.org/1999/xlink">
	<desc>
			Created with Pixso.
	</desc>
	<defs/>
	<path id="Vector" d="M20.0029 5.72876C20.9014 5.19043 21.5112 4.21265 21.5112 3.08594C21.5112 1.38403 20.1382 0 18.4497 0C16.7622 0 15.3896 1.38403 15.3896 3.08594C15.3896 4.22729 16.0161 5.21582 16.9341 5.74878C16.6387 5.84839 16.3535 5.97217 16.0825 6.13086C15.6743 4.22168 13.9888 2.78662 11.9756 2.78662C9.98584 2.78662 8.31836 4.19019 7.88623 6.06592C7.63428 5.9292 7.37158 5.81812 7.09912 5.73047C7.99902 5.19263 8.61035 4.21436 8.61035 3.08594C8.61035 1.38403 7.2373 0 5.5498 0C3.8623 0 2.48926 1.38403 2.48926 3.08594C2.48926 4.23145 3.12061 5.22144 4.04248 5.75317C1.37061 6.65991 0.235352 9.79272 0.00634766 11.5808C-0.0214844 11.7966 0.0454102 12.0139 0.187012 12.1777C0.329102 12.3413 0.535156 12.4351 0.750977 12.4351L7.40967 12.4351C4.68604 14.4353 4.07275 17.8188 4.06494 17.8669C4.02832 18.0869 4.08936 18.3113 4.23193 18.4814C4.37451 18.6519 4.58398 18.75 4.80566 18.75L19.1445 18.75C19.1494 18.7493 19.1538 18.7493 19.1587 18.75C19.5742 18.75 19.9102 18.4119 19.9102 17.9924C19.9102 17.8928 19.8911 17.7979 19.8555 17.7104C19.7129 16.9827 19.0181 14.1816 16.688 12.4351L23.2485 12.4351C23.4609 12.4351 23.665 12.3442 23.8071 12.1838C23.9497 12.0239 24.0176 11.811 23.9951 11.5972C23.8027 9.78833 22.7148 6.60449 20.0029 5.72876ZM18.4502 1.51416C19.3091 1.51416 20.0093 2.21899 20.0093 3.08545C20.0093 3.95093 19.3091 4.65479 18.4502 4.65479C17.5908 4.65479 16.8926 3.95093 16.8926 3.08545C16.8921 2.21899 17.5908 1.51416 18.4502 1.51416ZM11.9756 4.30078C13.4644 4.30078 14.6748 5.52148 14.6748 7.02222C14.6748 8.52295 13.4644 9.7439 11.9756 9.7439C10.4878 9.7439 9.27637 8.52295 9.27637 7.02222C9.27637 5.52148 10.4878 4.30078 11.9756 4.30078ZM5.5498 1.51416C6.40869 1.51416 7.1084 2.21899 7.1084 3.08545C7.1084 3.95093 6.40869 4.65479 5.5498 4.65479C4.68994 4.65479 3.99219 3.95093 3.99219 3.08545C3.99219 2.21899 4.68994 1.51416 5.5498 1.51416ZM5.6084 7.00757C6.44971 7.00757 7.15381 7.26416 7.75879 7.79297C7.78711 7.81812 7.82324 7.82812 7.85498 7.84766C8.12793 9.23315 9.07275 10.3782 10.3315 10.9199L1.67773 10.9199C2.04492 9.54834 3.06885 7.00757 5.6084 7.00757ZM18.1987 17.2351L5.7749 17.2351C6.29053 15.6509 7.84521 12.5081 12.063 12.5081C16.2593 12.5081 17.7271 15.6616 18.1987 17.2351ZM13.2236 11.0674C13.2285 11.0659 13.2329 11.0637 13.2373 11.062C13.2344 11.0645 13.2314 11.0667 13.2285 11.0681C13.2271 11.0681 13.2256 11.0681 13.2236 11.0674ZM13.6514 10.9199C13.6279 10.9199 13.6089 10.9312 13.5854 10.9336C14.8442 10.4055 15.7935 9.27856 16.084 7.90771C16.1865 7.87988 16.2852 7.83594 16.3716 7.76318C16.9844 7.25439 17.6831 7.00732 18.5093 7.00732C21.0723 7.00732 22.022 9.55273 22.3481 10.9199L13.6514 10.9199Z" fill="#FFFFFF" fill-opacity="1.000000" fill-rule="nonzero"/>
</svg>
