<svg width="19.807617" height="19.807373" viewBox="0 0 19.8076 19.8074" fill="none" xmlns="http://www.w3.org/2000/svg" xmlns:xlink="http://www.w3.org/1999/xlink">
	<desc>
			Created with Pixso.
	</desc>
	<defs/>
	<path id="Vector" d="M4.67383 18.6172L17.8809 5.4104L14.397 1.92676L1.18994 15.1335C1.11914 15.1902 1.06396 15.2678 1.03955 15.3623L0.0126953 19.2629C0.0107422 19.2703 0.0107422 19.2781 0.00927734 19.2854C0.00585938 19.3008 0.00341797 19.3159 0.00195312 19.3318C0.000488281 19.3459 0 19.3594 0 19.3735C0 19.3879 0 19.4011 0.00195312 19.4155C0.00341797 19.4314 0.00585938 19.4468 0.00927734 19.4617C0.0107422 19.4692 0.0107422 19.4771 0.0126953 19.4844C0.0141602 19.49 0.0166016 19.4949 0.0185547 19.5C0.0229492 19.5146 0.0283203 19.5288 0.034668 19.5432C0.0400391 19.5557 0.0454102 19.5684 0.0512695 19.5798C0.0585938 19.5923 0.065918 19.6038 0.0742188 19.6152C0.0820312 19.6272 0.0898438 19.6389 0.0986328 19.6499C0.107422 19.6609 0.117188 19.6702 0.126953 19.6802C0.136719 19.6904 0.146484 19.7 0.157715 19.7087C0.167969 19.7178 0.179688 19.7256 0.191895 19.7332C0.203613 19.7412 0.214844 19.749 0.227539 19.7559C0.239258 19.762 0.251465 19.7673 0.26416 19.7727C0.27832 19.7788 0.29248 19.7844 0.307129 19.7891C0.3125 19.7905 0.317383 19.7932 0.322754 19.7947C0.330566 19.7966 0.337891 19.7966 0.345703 19.7986C0.36084 19.8018 0.375977 19.8037 0.391602 19.8054C0.40625 19.8071 0.419434 19.8076 0.433594 19.8074C0.447754 19.8074 0.461426 19.8071 0.475586 19.8059C0.491211 19.8037 0.506836 19.8018 0.521973 19.7986C0.529297 19.7966 0.537109 19.7966 0.544434 19.7947L4.44531 18.7683C4.54004 18.7434 4.61768 18.6885 4.67383 18.6172ZM1.58838 18.219C1.48828 18.1187 1.35059 18.0791 1.22021 18.0974L1.81689 15.8296L3.97803 17.9907L1.70996 18.5872C1.72852 18.4565 1.68896 18.3193 1.58838 18.219Z" fill="#FFFFFF" fill-opacity="1.000000" fill-rule="nonzero"/>
	<path id="Vector" d="M18.4731 4.81836L14.9893 1.33447L16.3237 0C16.3237 0 18.6968 0.846436 19.8076 3.48413L18.4731 4.81836Z" fill="#FFFFFF" fill-opacity="1.000000" fill-rule="nonzero"/>
</svg>
