<svg width="22.000000" height="22.000000" viewBox="0 0 22 22" fill="none" xmlns="http://www.w3.org/2000/svg" xmlns:xlink="http://www.w3.org/1999/xlink">
	<desc>
			Created with Pixso.
	</desc>
	<defs>
		<clipPath id="clip110_69">
			<rect id="exit2 1" rx="2.000000" width="22.000000" height="22.000000" fill="white" fill-opacity="0"/>
		</clipPath>
	</defs>
	<path id="exit2 1" d="M0 0L20 0C21.1045 0 22 0.895508 22 2L22 20C22 21.1045 21.1045 22 20 22L2 22C0.895508 22 0 21.1045 0 20L0 0Z" fill="#FFFFFF" fill-opacity="0" fill-rule="evenodd"/>
	<g clip-path="url(#clip110_69)">
		<path id="Vector" d="M8.1123 0C6.59961 0 5.3623 1.23755 5.3623 2.75C5.3623 3.98755 6.1875 5.0874 7.4248 5.36255L7.4248 5.5C6.875 5.5 6.4624 5.7749 6.0498 6.1875L4.26221 7.9751C4.125 8.11255 3.84961 8.25 3.57471 8.25L1.2373 8.25L1.2373 0L8.1123 0Z" fill="#FFFFFF" fill-opacity="1.000000" fill-rule="nonzero"/>
		<path id="Vector" d="M5.6377 19.9375L10.8623 13.75L10.8623 17.1875C10.8623 18.2876 11.8252 19.25 12.9248 19.25L17.7373 19.25C18.5625 19.25 19.1123 18.7 19.1123 17.875C19.1123 17.05 18.5625 16.5 17.7373 16.5L14.2998 16.5C13.8877 16.5 13.6123 16.2251 13.6123 15.8125L13.6123 13.0625C13.6123 12.1001 13.4751 11.2749 13.0625 10.3125L12.1001 8.25L13.2002 8.25C13.8877 8.25 14.4375 8.5249 14.8501 9.07495L15.5376 10.0376C15.8125 10.5874 16.5 10.7251 17.1875 10.45C17.7373 10.0376 18.0127 9.2124 17.4624 8.6626L16.6377 7.5625C15.6748 6.1875 14.0249 5.5 12.375 5.5L9.625 5.5L9.4873 5.0874C10.3125 4.67505 10.8623 3.7124 10.8623 2.75C10.8623 1.23755 9.625 0 8.1123 0L17.7373 0L17.7373 6.73755L18.5625 7.8374C18.9751 8.38745 19.25 9.07495 19.1123 9.8999C18.9751 10.5874 18.5625 11.2749 17.875 11.6875L17.875 15.125C19.3877 15.125 20.625 16.3625 20.625 17.875C20.625 19.3875 19.3877 20.625 17.875 20.625L17.875 22L1.9248 22C3.4375 22 4.8125 21.175 5.6377 19.9375Z" fill="#FFFFFF" fill-opacity="1.000000" fill-rule="nonzero"/>
		<path id="Vector" d="M6.1875 10.0376L7.1499 8.9375L7.9751 11C8.25 11.6875 8.3877 12.2375 7.9751 12.7876L1.2373 21.175L1.2373 11L4.125 11C4.9502 11 5.6377 10.7251 6.1875 10.0376Z" fill="#FFFFFF" fill-opacity="1.000000" fill-rule="nonzero"/>
	</g>
</svg>
