<svg width="22.500000" height="19.500000" viewBox="0 0 22.5 19.5" fill="none" xmlns="http://www.w3.org/2000/svg" xmlns:xlink="http://www.w3.org/1999/xlink">
	<desc>
			Created with Pixso.
	</desc>
	<defs/>
	<path id="Vector" d="M11.6294 3.00439L9.60889 0.300781C9.46729 0.111816 9.24512 0 9.0083 0L2.25 0C1.65283 0 1.08057 0.237061 0.658691 0.65918C0.236816 1.08081 -0.000976562 1.65308 0 2.25C0 5.63989 0 13.8601 0 17.25C-0.000976562 17.8462 0.236816 18.4192 0.658691 18.8408C1.08057 19.2629 1.65283 19.5 2.25 19.5C6.11572 19.5 16.3838 19.5 20.249 19.5C20.8462 19.5 21.4185 19.2629 21.8408 18.8408C22.2622 18.4192 22.5 17.8462 22.5 17.25C22.5 14.376 22.5 8.12476 22.5 5.25073C22.5 4.65381 22.2622 4.08154 21.8398 3.65918C21.418 3.23706 20.8457 3 20.2485 3.00073L11.6294 3.00439ZM21 7.50537L9.24805 7.52173L6.44678 9.60596C6.31787 9.70264 6.16113 9.75439 6 9.75439L1.5 9.75439L1.5 17.25C1.5 17.4487 1.57861 17.6392 1.71924 17.7803C1.85986 17.9204 2.05029 18 2.25 18L20.25 18C20.4487 18 20.6392 17.9204 20.7803 17.7803C20.9204 17.6392 21 17.4487 21 17.25L21 7.50537ZM21 6.00537L21 5.25073C20.999 5.05127 20.9204 4.86084 20.7793 4.71973C20.6392 4.57959 20.4482 4.50073 20.249 4.50073L11.2539 4.50439C11.0176 4.50439 10.7949 4.39282 10.6528 4.20386L8.63232 1.5L2.25 1.5C2.05029 1.5 1.85986 1.57886 1.71924 1.71973C1.57861 1.86011 1.5 2.05127 1.5 2.25L1.5 8.25439L5.75098 8.25439L8.55225 6.17017C8.68115 6.07422 8.83789 6.02246 8.99854 6.02246L21 6.00537Z" fill="#FFFFFF" fill-opacity="1.000000" fill-rule="evenodd"/>
</svg>
