<svg width="inherit" height="inherit" viewBox="0 0 9 8" fill="none" xmlns="http://www.w3.org/2000/svg" id="linkedin">
  <path fill-rule="evenodd" clip-rule="evenodd"
        d="M1.99263 1.40826C1.80364 1.40826 1.60015 1.59826 1.60015 1.89248V6.02113C1.60015 6.31536 1.80364 6.50536 1.99263 6.50536H6.76351C6.9525 6.50536 7.15599 6.31536 7.15599 6.02113V1.89248C7.15599 1.59826 6.9525 1.40826 6.76351 1.40826H1.99263ZM1.19238 1.89248C1.19238 1.42979 1.52561 1.00049 1.99263 1.00049H6.76351C7.23053 1.00049 7.56376 1.42979 7.56376 1.89248V6.02113C7.56376 6.48383 7.23053 6.91313 6.76351 6.91313H1.99263C1.52561 6.91313 1.19238 6.48383 1.19238 6.02113V1.89248Z"
        fill="var(--icon-color, #A5AABE)"/>
  <path
    d="M3.64236 3.23682H3.0898C3.06528 3.23682 3.04541 3.2567 3.04541 3.28121V5.05634C3.04541 5.08086 3.06528 5.10073 3.0898 5.10073H3.64236C3.66688 5.10073 3.68675 5.08086 3.68675 5.05634V3.28121C3.68675 3.2567 3.66688 3.23682 3.64236 3.23682Z"
    fill="var(--icon-color, #A5AABE)"/>
  <path
    d="M3.36608 2.354C3.16503 2.354 3.00146 2.51739 3.00146 2.71822C3.00146 2.91914 3.16503 3.08259 3.36608 3.08259C3.56697 3.08259 3.73041 2.91913 3.73041 2.71822C3.73042 2.51739 3.56697 2.354 3.36608 2.354Z"
    fill="var(--icon-color, #A5AABE)"/>
  <path
    d="M5.04827 3.19238C4.82634 3.19238 4.66229 3.28779 4.56278 3.39619V3.2809C4.56278 3.25638 4.54291 3.2365 4.51839 3.2365H3.98922C3.9647 3.2365 3.94482 3.25638 3.94482 3.2809V5.05602C3.94482 5.08054 3.9647 5.10041 3.98922 5.10041H4.54057C4.56509 5.10041 4.58496 5.08054 4.58496 5.05602V4.17775C4.58496 3.88179 4.66535 3.76649 4.87166 3.76649C5.09635 3.76649 5.1142 3.95133 5.1142 4.19297V5.05603C5.1142 5.08055 5.13407 5.10042 5.15859 5.10042H5.71015C5.73467 5.10042 5.75454 5.08055 5.75454 5.05603V4.08234C5.75454 3.64226 5.67063 3.19238 5.04827 3.19238Z"
    fill="var(--icon-color, #A5AABE)"/>
</svg>
