<svg width="26.000000" height="26.000000" viewBox="0 0 26 26" fill="none" xmlns="http://www.w3.org/2000/svg" xmlns:xlink="http://www.w3.org/1999/xlink">
	<desc>
			Created with Pixso.
	</desc>
	<defs>
		<clipPath id="clip112_80">
			<rect id="Нота2 1" width="26.000000" height="26.000000" fill="white" fill-opacity="0"/>
		</clipPath>
	</defs>
	<rect id="Нота2 1" width="26.000000" height="26.000000" fill="#FFFFFF" fill-opacity="0"/>
	<g clip-path="url(#clip112_80)">
		<path id="Vector" d="M6.78076 22.8396C6.06494 22.8398 5.36475 22.6277 4.76904 22.2302C4.17383 21.8325 3.70947 21.2671 3.43506 20.6055C3.16113 19.9441 3.08887 19.2161 3.22852 18.5137C3.36816 17.8113 3.71289 17.166 4.21924 16.6594C4.72559 16.1531 5.37061 15.8081 6.07275 15.6682C6.77539 15.5286 7.50342 15.6001 8.16504 15.874C8.82666 16.1482 9.39209 16.6121 9.79004 17.2075C10.188 17.803 10.4004 18.5029 10.4004 19.2192C10.3989 20.1787 10.0176 21.0989 9.33887 21.7776C8.66064 22.4563 7.74072 22.8384 6.78076 22.8396ZM6.78076 16.8999C6.32178 16.8997 5.87305 17.0356 5.49121 17.2905C5.10938 17.5454 4.81201 17.9077 4.63623 18.3318C4.46045 18.7559 4.41406 19.2227 4.50391 19.6729C4.59326 20.123 4.81445 20.5366 5.13867 20.8613C5.46338 21.1858 5.87695 21.407 6.32715 21.4963C6.77734 21.5859 7.24414 21.5398 7.66846 21.364C8.09229 21.1882 8.45459 20.8906 8.70947 20.5088C8.96436 20.127 9.10059 19.6782 9.1001 19.2192C9.09961 18.6042 8.85498 18.0146 8.41992 17.5801C7.98535 17.1453 7.396 16.9006 6.78076 16.8999Z" fill="#FFFFFF" fill-opacity="1.000000" fill-rule="nonzero"/>
		<path id="Vector" d="M19.2192 22.8396C18.5029 22.8396 17.8032 22.6272 17.2075 22.2295C16.6123 21.8315 16.1484 21.2661 15.874 20.6047C15.6001 19.9431 15.5283 19.2151 15.668 18.5127C15.8081 17.8105 16.1528 17.1653 16.6592 16.6589C17.1655 16.1528 17.8105 15.8079 18.5127 15.6682C19.2153 15.5286 19.9429 15.6001 20.6045 15.8743C21.2661 16.1482 21.8315 16.6123 22.2295 17.2078C22.6274 17.803 22.8398 18.5032 22.8398 19.2192C22.8389 20.1792 22.4575 21.0996 21.7783 21.7786C21.0996 22.4573 20.1792 22.8389 19.2192 22.8396ZM19.2192 16.8999C18.7603 16.8999 18.3115 17.0361 17.9297 17.291C17.5483 17.5461 17.251 17.9087 17.0752 18.3328C16.8994 18.7568 16.8535 19.2234 16.9434 19.6736C17.0332 20.1238 17.2539 20.5374 17.5786 20.8618C17.9033 21.1863 18.3169 21.4072 18.7671 21.4966C19.2173 21.5859 19.6841 21.5398 20.1079 21.364C20.5322 21.188 20.8945 20.8904 21.1494 20.5088C21.4038 20.127 21.54 19.6782 21.5396 19.2192C21.5391 18.604 21.2944 18.0144 20.8594 17.5796C20.4238 17.1448 19.8345 16.9004 19.2192 16.8999Z" fill="#FFFFFF" fill-opacity="1.000000" fill-rule="nonzero"/>
		<path id="Vector" d="M22.1899 19.8694C22.0176 19.8694 21.8521 19.8008 21.73 19.679C21.6084 19.5571 21.54 19.3916 21.54 19.2192L21.54 4.61646L10.3999 7.02002L10.3999 19.2153C10.3999 19.3877 10.3315 19.5532 10.21 19.675C10.0879 19.7969 9.92236 19.8655 9.75 19.8655C9.57764 19.8655 9.4126 19.7969 9.29053 19.675C9.16846 19.5532 9.1001 19.3877 9.1001 19.2153L9.1001 6.5C9.1001 6.35156 9.15088 6.20752 9.24414 6.0918C9.33691 5.97607 9.46729 5.896 9.6123 5.8645L22.0518 3.1748C22.147 3.15405 22.2451 3.15503 22.3398 3.17749C22.4341 3.19971 22.5225 3.24316 22.5981 3.30396C22.6733 3.36499 22.7344 3.44214 22.7764 3.52979C22.8184 3.61743 22.8398 3.71338 22.8398 3.8103L22.8398 19.2192C22.8398 19.3916 22.7715 19.5571 22.6494 19.679C22.5273 19.8008 22.3623 19.8694 22.1899 19.8694Z" fill="#FFFFFF" fill-opacity="1.000000" fill-rule="nonzero"/>
		<path id="Vector" d="M9.75 11.7871C9.5874 11.7876 9.43066 11.7273 9.31055 11.6182C9.18994 11.5088 9.11523 11.3584 9.10059 11.1965C9.08545 11.0347 9.13184 10.873 9.23047 10.7437C9.32861 10.6143 9.47217 10.5264 9.63184 10.4976L22.0703 8.15747C22.1543 8.1416 22.2402 8.14258 22.3237 8.16016C22.4077 8.17749 22.4868 8.21143 22.5571 8.25952C22.6279 8.30762 22.688 8.36938 22.7349 8.44067C22.7817 8.51221 22.8135 8.59229 22.8296 8.67627C22.8452 8.76001 22.8442 8.84619 22.8267 8.92993C22.8096 9.01343 22.7754 9.09277 22.7275 9.16309C22.6792 9.23364 22.6177 9.29395 22.5459 9.34082C22.4746 9.38745 22.3945 9.41968 22.3105 9.4353L9.87109 11.7754C9.83105 11.7832 9.79053 11.7871 9.75 11.7871Z" fill="#FFFFFF" fill-opacity="1.000000" fill-rule="nonzero"/>
	</g>
</svg>
