<svg width="23.562500" height="19.937500" viewBox="0 0 23.5625 19.9375" fill="none" xmlns="http://www.w3.org/2000/svg" xmlns:xlink="http://www.w3.org/1999/xlink">
	<desc>
			Created with Pixso.
	</desc>
	<defs/>
	<path id="Vector" d="M20.8438 19.9375L2.71875 19.9375C1.99756 19.9375 1.30615 19.6511 0.796387 19.1411C0.286621 18.6313 0 17.9397 0 17.2188L0 2.71875C0 1.9978 0.286621 1.30615 0.796387 0.796387C1.30615 0.286377 1.99756 0 2.71875 0L20.8438 0C21.5649 0 22.2563 0.286377 22.7661 0.796387C23.2759 1.30615 23.5625 1.9978 23.5625 2.71875L23.5625 17.2188C23.5625 17.9397 23.2759 18.6313 22.7661 19.1411C22.2563 19.6511 21.5649 19.9375 20.8438 19.9375ZM2.71875 1.8125C2.47852 1.8125 2.24805 1.90796 2.07812 2.07788C1.9082 2.2478 1.8125 2.47852 1.8125 2.71875L1.8125 17.2188C1.8125 17.459 1.9082 17.6897 2.07812 17.8596C2.24805 18.0295 2.47852 18.125 2.71875 18.125L20.8438 18.125C21.084 18.125 21.3145 18.0295 21.4844 17.8596C21.6543 17.6897 21.75 17.459 21.75 17.2188L21.75 2.71875C21.75 2.47852 21.6543 2.2478 21.4844 2.07788C21.3145 1.90796 21.084 1.8125 20.8438 1.8125L2.71875 1.8125Z" fill="#FFFFFF" fill-opacity="1.000000" fill-rule="nonzero"/>
	<path id="Vector" d="M16.3125 9.0625C15.7749 9.0625 15.249 8.90308 14.8022 8.60425C14.355 8.30566 14.0063 7.88086 13.8008 7.38428C13.5947 6.88745 13.541 6.34082 13.646 5.81323C13.751 5.28589 14.0098 4.80151 14.3901 4.42139C14.7705 4.04102 15.2549 3.78223 15.7822 3.67725C16.3096 3.57227 16.856 3.62622 17.353 3.83203C17.8496 4.03784 18.2744 4.38623 18.5732 4.83325C18.8716 5.28027 19.0312 5.80615 19.0312 6.34375C19.0312 7.0647 18.7446 7.75635 18.2349 8.26611C17.7251 8.77612 17.0337 9.0625 16.3125 9.0625ZM16.3125 5.4375C16.1333 5.4375 15.958 5.49072 15.8091 5.59033C15.6602 5.6897 15.5439 5.8313 15.4751 5.99683C15.4067 6.1626 15.3887 6.34473 15.4238 6.52051C15.4585 6.69629 15.5449 6.85791 15.6719 6.98462C15.7983 7.11133 15.96 7.19751 16.1357 7.23267C16.3115 7.26758 16.4937 7.24951 16.6592 7.18091C16.8247 7.1123 16.9663 6.99634 17.0659 6.84717C17.1655 6.69824 17.2188 6.52295 17.2188 6.34375C17.2188 6.10352 17.123 5.8728 16.9531 5.70288C16.7832 5.53296 16.5527 5.4375 16.3125 5.4375Z" fill="#FFFFFF" fill-opacity="1.000000" fill-rule="nonzero"/>
	<path id="Vector" d="M20.8438 19.9375C20.6943 19.9368 20.5479 19.8992 20.4165 19.8279C20.2852 19.7568 20.1738 19.6543 20.0913 19.5298L16.1582 13.6392C16.0757 13.5156 15.9634 13.4146 15.8325 13.3447C15.7012 13.2749 15.5547 13.2383 15.4062 13.2383C15.2578 13.2383 15.1113 13.2749 14.98 13.3447C14.8491 13.4146 14.7368 13.5156 14.6538 13.6392L14.3457 14.0923C14.2041 14.2681 14.002 14.3848 13.7788 14.4192C13.5557 14.4539 13.3276 14.4038 13.1396 14.2791C12.9512 14.1545 12.8164 13.9639 12.7612 13.7449C12.7061 13.5259 12.7349 13.2944 12.8413 13.0952L13.1406 12.6331C13.3887 12.2593 13.7251 11.9526 14.1206 11.7405C14.5161 11.5283 14.9575 11.4172 15.4062 11.4172C15.855 11.4172 16.2964 11.5283 16.6919 11.7405C17.0874 11.9526 17.4238 12.2593 17.6719 12.6331L21.5957 18.5327C21.7271 18.7327 21.7739 18.9761 21.7266 19.2104C21.6787 19.4446 21.541 19.6506 21.3423 19.7834C21.1963 19.8857 21.022 19.9395 20.8438 19.9375Z" fill="#FFFFFF" fill-opacity="1.000000" fill-rule="nonzero"/>
	<path id="Vector" d="M2.71875 19.9375C2.54541 19.9373 2.37549 19.8867 2.22949 19.7925C2.02783 19.6626 1.88623 19.458 1.83496 19.2234C1.78418 18.989 1.82812 18.7439 1.95752 18.542L7.60352 9.82373C7.84863 9.44531 8.18408 9.13354 8.57959 8.91675C8.9751 8.69995 9.41846 8.58496 9.86914 8.58228C10.3179 8.58203 10.7593 8.69287 11.1548 8.90479C11.5498 9.1167 11.8867 9.4231 12.1348 9.79663L17.9531 18.533C18.0596 18.7319 18.0884 18.9636 18.0332 19.1826C17.978 19.4014 17.8433 19.592 17.6548 19.7168C17.4668 19.8416 17.2388 19.8914 17.0156 19.8569C16.7925 19.8223 16.5903 19.7056 16.4487 19.5298L10.6216 10.8025C10.5396 10.678 10.4277 10.5754 10.2964 10.5044C10.1655 10.4331 10.0186 10.3955 9.86914 10.3948C9.71924 10.3965 9.57178 10.4355 9.44043 10.5083C9.30908 10.5811 9.19824 10.6853 9.11719 10.8118L3.47998 19.5208C3.39844 19.6484 3.28564 19.7534 3.15283 19.8262C3.01953 19.8989 2.87061 19.9373 2.71875 19.9375Z" fill="#FFFFFF" fill-opacity="1.000000" fill-rule="nonzero"/>
</svg>
