<svg width="20.100098" height="20.000000" viewBox="0 0 20.1001 20" fill="none" xmlns="http://www.w3.org/2000/svg" xmlns:xlink="http://www.w3.org/1999/xlink">
	<desc>
			Created with Pixso.
	</desc>
	<defs/>
	<path id="Vector" d="M7.2998 20L6.8999 16.8C6.68311 16.7166 6.479 16.6167 6.2876 16.5C6.0957 16.3833 5.9082 16.2583 5.7251 16.125L2.75 17.375L0 12.625L2.5752 10.675C2.55811 10.5583 2.5498 10.4458 2.5498 10.3374L2.5498 9.6626C2.5498 9.5542 2.55811 9.44165 2.5752 9.32495L0 7.375L2.75 2.625L5.7251 3.875C5.9082 3.7417 6.1001 3.6167 6.2998 3.5C6.5 3.3833 6.7002 3.28345 6.8999 3.19995L7.2998 0L12.7998 0L13.2002 3.19995C13.4165 3.28345 13.6206 3.3833 13.8125 3.5C14.0044 3.6167 14.1919 3.7417 14.375 3.875L17.3501 2.625L20.1001 7.375L17.5249 9.32495C17.5415 9.44165 17.5498 9.5542 17.5498 9.6626L17.5498 10.3374C17.5498 10.4458 17.5332 10.5583 17.5 10.675L20.0752 12.625L17.3252 17.375L14.375 16.125C14.1919 16.2583 14 16.3833 13.7998 16.5C13.6001 16.6167 13.3999 16.7166 13.2002 16.8L12.7998 20L7.2998 20ZM9.0498 18L11.0249 18L11.375 15.3501C11.8916 15.2166 12.3706 15.0208 12.8125 14.7625C13.2544 14.5042 13.6582 14.1917 14.0249 13.825L16.5 14.8501L17.4751 13.1499L15.3252 11.5249C15.4082 11.2917 15.4668 11.0459 15.5 10.7876C15.5332 10.5291 15.5498 10.2666 15.5498 10C15.5498 9.7334 15.5332 9.47095 15.5 9.2124C15.4668 8.9541 15.4082 8.70825 15.3252 8.4751L17.4751 6.8501L16.5 5.1499L14.0249 6.19995C13.6582 5.81665 13.2544 5.49585 12.8125 5.23755C12.3706 4.97925 11.8916 4.78345 11.375 4.6499L11.0498 2L9.0752 2L8.7251 4.6499C8.2085 4.78345 7.729 4.97925 7.2876 5.23755C6.8457 5.49585 6.44189 5.80835 6.0752 6.17505L3.6001 5.1499L2.625 6.8501L4.7749 8.44995C4.69189 8.69995 4.6333 8.94995 4.6001 9.19995C4.56689 9.44995 4.5498 9.71655 4.5498 10C4.5498 10.2666 4.56689 10.5249 4.6001 10.7749C4.6333 11.0249 4.69189 11.2749 4.7749 11.5249L2.625 13.1499L3.6001 14.8501L6.0752 13.8C6.44189 14.1833 6.8457 14.5042 7.2876 14.7625C7.729 15.0208 8.2085 15.2166 8.7251 15.3501L9.0498 18ZM10.1001 13.5C11.0669 13.5 11.8916 13.1584 12.5752 12.4751C13.2583 11.7917 13.6001 10.9666 13.6001 10C13.6001 9.03345 13.2583 8.20825 12.5752 7.5249C11.8916 6.84155 11.0669 6.5 10.1001 6.5C9.1167 6.5 8.2876 6.84155 7.6123 7.5249C6.9375 8.20825 6.6001 9.03345 6.6001 10C6.6001 10.9666 6.9375 11.7917 7.6123 12.4751C8.2876 13.1584 9.1167 13.5 10.1001 13.5Z" fill="#FFFFFF" fill-opacity="1.000000" fill-rule="nonzero"/>
</svg>
