<svg width="24.000000" height="21.000000" viewBox="0 0 24 21" fill="none" xmlns="http://www.w3.org/2000/svg" xmlns:xlink="http://www.w3.org/1999/xlink">
	<desc>
			Created with Pixso.
	</desc>
	<defs/>
	<path id="Vector" d="M22.5 9L18 12C18 11.0896 17.5859 10.2839 16.9453 9.7334C18.4702 8.8147 19.5 7.15942 19.5 5.25C19.5 2.35059 17.1494 0 14.25 0C11.3506 0 9 2.35059 9 5.25C9 6.7207 9.6084 8.04663 10.5835 9L7.83203 9C8.55078 8.20264 9 7.15796 9 6C9 3.5144 6.98535 1.5 4.5 1.5C2.01465 1.5 0 3.5144 0 6C0 7.35596 0.612793 8.55737 1.56152 9.38257C0.635254 9.89331 0 10.8674 0 12L0 18C0 19.6567 1.34326 21 3 21L15 21C16.6567 21 18 19.6567 18 18L18 17.25L22.5 21C23.3286 21 24 20.3289 24 19.5L24 10.5C24 9.67114 23.3286 9 22.5 9ZM1.5 6C1.5 4.34326 2.84326 3 4.5 3C6.15674 3 7.5 4.34326 7.5 6C7.5 7.65674 6.15674 9 4.5 9C2.84326 9 1.5 7.65674 1.5 6ZM16.5 18C16.5 18.8279 15.8286 19.5 15 19.5L3 19.5C2.17139 19.5 1.5 18.8289 1.5 18L1.5 12C1.5 11.1711 2.17139 10.5 3 10.5L15 10.5C15.8286 10.5 16.5 11.1711 16.5 12L16.5 18ZM14.25 9.0083C12.1738 9.0083 10.4917 7.3252 10.4917 5.25C10.4917 3.17407 12.1748 1.4917 14.25 1.4917C16.3252 1.4917 18.0083 3.17407 18.0083 5.25C18.0083 7.32593 16.3262 9.0083 14.25 9.0083ZM22.5 19.5L18 15.75L18 13.5L22.5 10.5L22.5 19.5Z" fill="#FFFFFF" fill-opacity="1.000000" fill-rule="nonzero"/>
</svg>
