<svg width="19.833496" height="23.333252" viewBox="0 0 19.8335 23.3333" fill="none" xmlns="http://www.w3.org/2000/svg" xmlns:xlink="http://www.w3.org/1999/xlink">
	<desc>
			Created with Pixso.
	</desc>
	<defs/>
	<path id="Vector" d="M15.1665 17.5L4.6665 17.5L4.6665 9.91675C4.6665 7 7 4.66675 9.9165 4.66675C12.8335 4.66675 15.1665 7 15.1665 9.91675L15.1665 17.5ZM17.5 16.3333L17.5 9.91675C17.5 6.33496 15.0034 3.33667 11.6665 2.54321L11.6665 1.75C11.6665 1.28589 11.4824 0.84082 11.1543 0.512451C10.8257 0.184326 10.3809 0 9.9165 0C9.45264 0 9.00732 0.184326 8.6792 0.512451C8.35107 0.84082 8.1665 1.28589 8.1665 1.75L8.1665 2.54321C4.81836 3.33667 2.3335 6.33496 2.3335 9.91675L2.3335 16.3333L0 18.6667L0 19.8333L19.8335 19.8333L19.8335 18.6667L17.5 16.3333ZM9.9165 23.3333C10.5356 23.3333 11.1289 23.0874 11.5664 22.6499C12.0044 22.2124 12.25 21.6189 12.25 21L7.5835 21C7.5835 21.6189 7.8291 22.2124 8.2666 22.6499C8.7041 23.0874 9.29785 23.3333 9.9165 23.3333Z" fill="#FFFFFF" fill-opacity="1.000000" fill-rule="nonzero"/>
</svg>
